<?xml version="1.0" encoding="UTF-8" standalone="no"?>
<!-- Created with Inkscape (http://www.inkscape.org/) -->

<svg
   xmlns:dc="http://purl.org/dc/elements/1.1/"
   xmlns:cc="http://creativecommons.org/ns#"
   xmlns:rdf="http://www.w3.org/1999/02/22-rdf-syntax-ns#"
   xmlns:svg="http://www.w3.org/2000/svg"
   xmlns="http://www.w3.org/2000/svg"
   xmlns:sodipodi="http://sodipodi.sourceforge.net/DTD/sodipodi-0.dtd"
   xmlns:inkscape="http://www.inkscape.org/namespaces/inkscape"
   width="10.823414mm"
   height="10.65625mm"
   viewBox="0 0 10.823414 10.65625"
   version="1.1"
   id="svg8"
   inkscape:version="0.92.4 (f8dce91, 2019-08-02)"
   sodipodi:docname="settings.svg">
  <defs
     id="defs2" />
  <sodipodi:namedview
     id="base"
     pagecolor="#ffffff"
     bordercolor="#666666"
     borderopacity="1.0"
     inkscape:pageopacity="0.0"
     inkscape:pageshadow="2"
     inkscape:zoom="7.9195959"
     inkscape:cx="39.750731"
     inkscape:cy="30.855407"
     inkscape:document-units="mm"
     inkscape:current-layer="layer1"
     showgrid="false"
     fit-margin-top="0"
     fit-margin-left="0"
     fit-margin-right="0"
     fit-margin-bottom="0"
     inkscape:pagecheckerboard="false"
     inkscape:window-width="1280"
     inkscape:window-height="926"
     inkscape:window-x="0"
     inkscape:window-y="27"
     inkscape:window-maximized="1" />
  <metadata
     id="metadata5">
    <rdf:RDF>
      <cc:Work
         rdf:about="">
        <dc:format>image/svg+xml</dc:format>
        <dc:type
           rdf:resource="http://purl.org/dc/dcmitype/StillImage" />
        <dc:title></dc:title>
      </cc:Work>
    </rdf:RDF>
  </metadata>
  <g
     inkscape:label="Layer 1"
     inkscape:groupmode="layer"
     id="layer1"
     transform="translate(-0.06403838,-286.11405)">
    <path
       style="fill:#808080;fill-opacity:1;stroke-width:0.02002765"
       d="m 3.6585402,296.59793 -0.4662826,-0.1672 -0.04915,-0.0322 -0.049151,-0.0322 -0.031236,-0.0477 -0.031235,-0.0476 -0.010381,-0.0672 -0.010381,-0.0672 0.1129071,-0.42058 0.1129072,-0.42058 -0.01002,-0.0783 -0.01002,-0.0783 -0.038238,-0.0518 -0.038238,-0.0518 -0.3387465,-0.28458 -0.3387464,-0.28456 -0.06311,-0.0309 -0.06311,-0.0309 H 2.266127 2.195945 l -0.3974403,0.1875 -0.3974396,0.18747 -0.045552,0.011 -0.045552,0.0111 -0.070674,-0.0195 -0.070674,-0.0196 -0.056927,-0.0538 -0.056927,-0.0538 -0.25743855,-0.44061 -0.25743862,-0.44061 0.001088,-0.1001 0.001088,-0.1001 0.0348885,-0.053 0.0348885,-0.053 0.34915581,-0.24377 0.34915586,-0.24376 0.040158,-0.051 0.040158,-0.051 0.018845,-0.0683 0.018845,-0.0682 -0.087221,-0.48012 -0.087221,-0.48013 -0.043046,-0.0604 -0.043046,-0.0604 -0.054937,-0.0283 -0.054937,-0.0283 -0.41769077,-0.10565 -0.41769079,-0.10565 -0.0655755,-0.0655 -0.06557548,-0.0655 -0.01358684,-0.0723 -0.01358684,-0.0723 0.08500984,-0.50369 0.0850098,-0.50369 0.0294709,-0.0639 0.0294709,-0.0639 0.0508831,-0.0332 0.0508831,-0.0332 0.0558584,-0.016 0.0558584,-0.0159 0.42489458,0.0382 0.4248933,0.0382 0.073425,-0.0198 0.073425,-0.0197 0.052616,-0.0554 0.052616,-0.0554 0.2331419,-0.41056 0.233142,-0.41057 -0.00774,-0.10264 -0.00774,-0.10275 -0.265861,-0.37323 -0.2658622,-0.37326 -0.010194,-0.0755 -0.010194,-0.0756 0.029938,-0.0716 0.029938,-0.0716 0.4169071,-0.3531 0.4169068,-0.35311 0.065923,-0.0125 0.065923,-0.0125 0.075103,0.0139 0.075103,0.0139 0.3204423,0.31781 0.3204423,0.3178 0.07446,0.031 0.074461,0.031 h 0.039508 0.039508 l 0.4468065,-0.16292 0.4468067,-0.16289 0.056864,-0.0525 0.056864,-0.0523 0.027816,-0.0532 0.027817,-0.0532 0.03248,-0.42743 0.03248,-0.42742 0.033045,-0.0698 0.033046,-0.0698 0.06805,-0.0453 0.068052,-0.0454 h 0.5704696 0.5704688 l 0.065322,0.0404 0.065323,0.0404 0.031313,0.0661 0.031313,0.066 0.032521,0.39934 0.032521,0.39933 0.028781,0.0817 0.028781,0.0817 0.05472,0.0521 0.054721,0.052 0.4105667,0.14458 0.4105669,0.1446 0.06478,0.0181 0.06478,0.0181 0.085428,-0.0227 0.085427,-0.0227 0.3304557,-0.33732 0.3304568,-0.33733 0.090124,-0.0128 0.090125,-0.0128 0.055532,0.0212 0.055532,0.0212 0.284939,0.23465 0.2849381,0.23464 0.1349331,0.11794 0.1349339,0.11805 0.022871,0.0764 0.022871,0.0763 -0.012994,0.0671 -0.012993,0.0671 -0.2539153,0.36049 -0.2539147,0.3605 -0.00838,0.11388 -0.00838,0.11389 0.2468991,0.42402 0.2468991,0.42403 0.070493,0.048 0.070493,0.048 0.1205236,-4.1e-4 0.1205235,-4.1e-4 0.270372,-0.0292 0.270373,-0.0292 0.120166,-2e-4 0.120166,-4.1e-4 0.06412,0.0391 0.06412,0.039 0.02976,0.0575 0.02976,0.0576 0.09305,0.5091 0.09306,0.50914 -0.01022,0.0635 -0.01022,0.0635 -0.03454,0.0528 -0.03453,0.0528 -0.0557,0.0287 -0.0557,0.0288 -0.406738,0.11008 -0.4067358,0.11006 -0.050297,0.0375 -0.050298,0.0375 -0.036275,0.0619 -0.036276,0.0619 -0.078315,0.46669 -0.078315,0.46667 0.018962,0.0701 0.018962,0.0701 0.028217,0.04 0.028219,0.04 0.3660588,0.25036 0.366059,0.25034 0.03675,0.0601 0.03675,0.0601 7.6e-5,0.0896 7.5e-5,0.0896 -0.270356,0.4739 -0.2703568,0.47388 -0.053769,0.0353 -0.053769,0.0353 -0.084233,0.009 -0.084233,0.009 -0.4188494,-0.19261 -0.4188601,-0.19262 h -0.054651 -0.054652 l -0.068337,0.0285 -0.068337,0.0285 -0.3465931,0.29604 -0.3465942,0.29602 -0.023326,0.0308 -0.023326,0.0309 -0.023384,0.078 -0.023384,0.078 0.1251141,0.4563 0.1251149,0.45631 -0.034902,0.0914 -0.034902,0.0914 -0.053516,0.0377 -0.053516,0.0377 -0.4969107,0.1835 -0.49691,0.18353 -0.06935,-0.0131 -0.06935,-0.0131 -0.062915,-0.0427 -0.062915,-0.0427 -0.1867123,-0.39871 -0.1867123,-0.39872 -0.03524,-0.0389 -0.03524,-0.039 -0.050117,-0.0248 -0.050115,-0.0249 -0.5207189,0.005 -0.5207191,0.005 -0.023498,0.002 -0.023498,0.002 -0.058997,0.0496 -0.058997,0.0496 -0.1355145,0.29582 -0.1355145,0.29585 -0.058329,0.12413 -0.058329,0.12411 -0.066496,0.0412 -0.066496,0.041 -0.08776,-10e-4 -0.08776,-0.001 -0.4662829,-0.1672 z m 2.2245092,-2.74434 0.1712751,-0.0299 0.1668113,-0.0523 0.1668117,-0.0524 0.1991407,-0.10183 0.1991407,-0.10184 0.1513433,-0.11423 0.1513431,-0.11438 0.1419366,-0.14721 0.1419365,-0.14724 0.090988,-0.1241 0.090987,-0.12411 0.1004393,-0.19632 0.1004402,-0.19634 0.052565,-0.16752 0.052565,-0.16751 0.031879,-0.18298 0.03188,-0.18295 -0.010638,-0.30043 -0.010638,-0.3004 -0.04234,-0.17024 -0.042339,-0.17023 -0.040663,-0.10933 -0.040664,-0.10934 -0.070698,-0.14103 -0.070698,-0.14103 -0.092728,-0.14019 -0.092728,-0.14019 -0.1752006,-0.18162 -0.1752,-0.18164 L 6.90422,289.45273 6.7484426,289.3407 6.5681937,289.2509 6.387945,289.1611 6.2280346,289.1082 6.068125,289.0553 l -0.1805598,-0.0315 -0.18056,-0.0315 -0.3204429,0.009 -0.320442,0.009 -0.1923972,0.0514 -0.1923973,0.0514 -0.1820391,0.0789 -0.1820389,0.0789 -0.1663103,0.10945 -0.1663102,0.10946 -0.1254329,0.10995 -0.1254327,0.10995 -0.1034344,0.11793 -0.1034345,0.11794 -0.1085632,0.16631 -0.1085634,0.1663 -0.078955,0.18204 -0.078955,0.18203 -0.051526,0.1924 -0.051526,0.1924 -0.00995,0.32043 -0.00995,0.32045 0.031431,0.18057 0.031431,0.18055 0.052877,0.15992 0.052876,0.15991 0.089957,0.18024 0.089956,0.18026 0.09203,0.13018 0.09203,0.13016 0.1514811,0.15806 0.1514812,0.15806 0.1598186,0.11941 0.1598183,0.11941 0.1906655,0.0956 0.1906652,0.0956 0.1686677,0.0532 0.1686674,0.0532 0.1517749,0.0275 0.1517749,0.0275 0.2527288,0.002 0.2527292,10e-4 0.1712751,-0.0298 z"
       id="path880"
       inkscape:connector-curvature="0" />
  </g>
</svg>
