<?xml version="1.0" encoding="UTF-8" standalone="no"?>
<!-- Created with Inkscape (http://www.inkscape.org/) -->

<svg
   xmlns:dc="http://purl.org/dc/elements/1.1/"
   xmlns:cc="http://creativecommons.org/ns#"
   xmlns:rdf="http://www.w3.org/1999/02/22-rdf-syntax-ns#"
   xmlns:svg="http://www.w3.org/2000/svg"
   xmlns="http://www.w3.org/2000/svg"
   xmlns:sodipodi="http://sodipodi.sourceforge.net/DTD/sodipodi-0.dtd"
   xmlns:inkscape="http://www.inkscape.org/namespaces/inkscape"
   width="10.977803mm"
   height="8.3218966mm"
   viewBox="0 0 10.977803 8.3218966"
   version="1.1"
   id="svg8"
   inkscape:version="0.92.4 (f8dce91, 2019-08-02)"
   sodipodi:docname="folder.svg">
  <defs
     id="defs2" />
  <sodipodi:namedview
     id="base"
     pagecolor="#ffffff"
     bordercolor="#666666"
     borderopacity="1.0"
     inkscape:pageopacity="0.0"
     inkscape:pageshadow="2"
     inkscape:zoom="11.2"
     inkscape:cx="17.590681"
     inkscape:cy="15.893801"
     inkscape:document-units="mm"
     inkscape:current-layer="layer1"
     showgrid="false"
     fit-margin-top="0"
     fit-margin-left="0"
     fit-margin-right="0"
     fit-margin-bottom="0"
     inkscape:pagecheckerboard="false"
     inkscape:window-width="1280"
     inkscape:window-height="926"
     inkscape:window-x="0"
     inkscape:window-y="27"
     inkscape:window-maximized="1" />
  <metadata
     id="metadata5">
    <rdf:RDF>
      <cc:Work
         rdf:about="">
        <dc:format>image/svg+xml</dc:format>
        <dc:type
           rdf:resource="http://purl.org/dc/dcmitype/StillImage" />
        <dc:title></dc:title>
      </cc:Work>
    </rdf:RDF>
  </metadata>
  <g
     inkscape:label="Layer 1"
     inkscape:groupmode="layer"
     id="layer1"
     transform="translate(-0.06121541,-287.24639)">
    <text
       xml:space="preserve"
       style="font-style:normal;font-weight:normal;font-size:10.58333302px;line-height:1.25;font-family:sans-serif;letter-spacing:0px;word-spacing:0px;fill:#000000;fill-opacity:1;stroke:none;stroke-width:0.26458332"
       x="68.035713"
       y="54.339287"
       id="text817"><tspan
         sodipodi:role="line"
         id="tspan815"
         x="68.035713"
         y="54.339287"
         style="stroke-width:0.26458332">📂</tspan></text>
    <g
       id="g1281"
       transform="matrix(0.05189463,0,0,0.05189463,13.058705,292.2776)">
      <path
         style="fill:#f8e1b8;stroke-width:0.26458332"
         d="m -234.4256,63.020593 -1.5875,-0.350734 -1.45521,-0.573773 -1.4552,-0.573773 -1.19063,-0.686099 -1.19062,-0.686099 -1.52563,-1.19013 -1.52563,-1.19013 -1.33413,-1.61126 -1.33414,-1.611259 -1.16573,-2.38125 -1.16573,-2.38125 -0.46514,-1.719792 -0.46515,-1.719791 -0.0866,-61.383331 -0.0866,-61.383331 0.27811,-2.429156 0.27811,-2.429154 0.74757,-2.112545 0.74757,-2.112544 0.90574,-1.505187 0.90575,-1.505186 1.55368,-1.701878 1.55369,-1.701878 1.66197,-1.18596 1.66197,-1.18596 1.68868,-0.765681 1.68867,-0.765682 1.57796,-0.474292 1.57796,-0.474291 26.72292,-0.08177 26.72292,-0.08177 10.01021,9.99188 10.01022,9.99188 41.98041,0.132292 41.980408,0.132291 2.147951,0.677804 2.147953,0.677805 2.06918,1.174279 2.069179,1.174279 1.873059,1.852083 1.87306,1.852083 1.003834,1.524786 1.003835,1.524788 0.785979,1.906016 0.785977,1.906014 0.388225,2.226251 0.388226,2.226252 v 5.490506 5.490506 l 2.050521,0.191649 2.050521,0.191648 1.927945,0.492556 1.927944,0.492556 2.064338,1.073986 2.064337,1.073987 1.709047,1.409702 1.709047,1.4097 1.379559,1.860923 1.379558,1.860923 0.765165,1.687534 0.765164,1.687531 0.478071,1.582967 0.478067,1.582968 -0.0067,3.175 -0.0067,3.175 -4.565341,25.267707 -4.56534,25.267707 -0.661509,3.704167 -0.661509,3.704167 -0.491381,2.778124 -0.491384,2.778125 -0.803593,4.497917 -0.803595,4.497916 -0.503849,1.461156 -0.503851,1.461154 -0.669332,1.320866 -0.669333,1.320866 -1.252998,1.666854 -1.252998,1.666856 -1.750652,1.405589 -1.750653,1.405588 -1.455208,0.809712 -1.455209,0.80971 -2.116666,0.744156 -2.116667,0.744159 -82.682292,0.04637 -82.68229,0.04637 -1.5875,-0.350734 z"
         id="path1295"
         inkscape:connector-curvature="0" />
      <path
         style="fill:#f9d28b;stroke-width:0.26458332"
         d="m -234.02872,63.017 -1.71979,-0.346676 -1.3743,-0.524732 -1.37429,-0.524735 -1.80071,-0.999955 -1.8007,-0.999953 -2.13937,-2.139932 -2.13936,-2.139931 -1.0865,-1.852084 -1.0865,-1.852083 -0.74289,-2.116666 -0.74288,-2.116667 v -64.029164 -64.029165 l 0.61807,-1.852083 0.61807,-1.852083 0.91741,-1.75045 0.9174,-1.750449 1.24906,-1.550432 1.24905,-1.550433 1.56132,-1.25782 1.56131,-1.257819 2.06058,-1.072034 2.06059,-1.072034 2.06023,-0.579259 2.06024,-0.57926 26.44509,-0.08582 26.44509,-0.08582 10.06741,10.062502 10.06741,10.062501 41.80417,0.07129 41.804164,0.07129 1.5875,0.463063 1.5875,0.463063 2.513542,1.231876 2.513542,1.231876 2.52858,2.536881 2.528581,2.536878 1.219412,2.513541 1.219414,2.513542 0.448056,1.719791 0.448059,1.719792 0.13495,6.511443 0.134951,6.511446 2.453066,0.146352 2.453066,0.146351 2.280878,0.786186 2.28088,0.786185 1.518386,0.890326 1.518388,0.890328 2.407991,2.391278 2.407989,2.39128 1.229752,2.50358 1.229749,2.503577 0.44033,1.719792 0.44033,1.719792 -0.0021,2.645833 -0.0021,2.645833 -6.528539,36.380207 -6.528538,36.380207 -0.426471,1.322917 -0.426474,1.322916 -0.764321,1.559446 -0.764317,1.559444 -0.934189,1.272619 -0.934188,1.27262 -1.802752,1.665851 -1.802751,1.665853 -2.08628,1.106374 -2.086279,1.106376 -1.984375,0.613416 -1.984375,0.613417 -82.153127,0.04255 -82.15313,0.04254 -1.71979,-0.346678 z"
         id="path1293"
         inkscape:connector-curvature="0" />
      <path
         style="fill:#fbd15f;stroke-width:0.26458332"
         d="m -233.82933,62.992785 -2.04956,-0.370604 -1.59154,-0.646705 -1.59155,-0.646706 -1.58334,-0.961823 -1.58333,-0.961824 -1.47232,-1.345616 -1.47232,-1.345617 -1.18077,-1.654705 -1.18077,-1.654704 -0.89926,-1.946328 -0.89926,-1.946327 -0.42431,-2.112455 -0.4243,-2.112452 0.073,-62.970831 0.073,-62.970831 0.74415,-2.116666 0.74416,-2.116667 0.81446,-1.455208 0.81446,-1.455208 1.21951,-1.557186 1.21951,-1.557187 1.80922,-1.416432 1.80923,-1.416433 1.89494,-0.929184 1.89494,-0.929183 2.09284,-0.528969 2.09285,-0.528968 h 26.48348 26.48348 l 9.91293,9.915581 9.91294,9.91558 41.67949,0.08121 41.679491,0.08121 1.651661,0.450713 1.651662,0.450715 1.747263,0.792247 1.747266,0.792247 1.646794,1.175126 1.646793,1.175128 1.494747,1.614506 1.494748,1.614506 1.05102,1.779466 1.051021,1.779465 0.73611,2.116667 0.736111,2.116667 0.139067,7.011458 0.139071,7.011458 2.33132,0.177593 2.331323,0.177591 1.895338,0.575691 1.895337,0.575691 1.329592,0.667396 1.32959,0.667393 1.5875,1.125931 1.5875,1.125932 1.20161,1.289849 1.201608,1.289849 0.873009,1.273321 0.873011,1.27332 0.73628,1.637096 0.736282,1.637096 0.430247,1.736696 0.430245,1.736696 v 2.54735 2.547347 l -6.4931,36.329497 -6.493098,36.329495 -0.281479,1.058333 -0.28148,1.058333 -0.761011,1.679133 -0.76101,1.679136 -1.179629,1.653101 -1.179629,1.653101 -1.472319,1.345617 -1.472319,1.345616 -1.58364,0.962011 -1.583639,0.962009 -2.069418,0.755246 -2.069417,0.755242 -2.05355,0.285623 -2.053553,0.285623 -80.480336,-0.02374 -80.48033,-0.02374 z"
         id="path1291"
         inkscape:connector-curvature="0" />
      <path
         style="fill:#fec827;stroke-width:0.26458332"
         d="m -232.84551,63.139081 -1.5949,-0.212439 -2.21541,-0.7322 -2.21541,-0.732203 -1.92031,-1.25359 -1.92031,-1.253591 -1.08463,-0.979894 -1.08462,-0.979895 -1.21709,-1.619084 -1.21709,-1.619083 -0.73468,-1.456965 -0.73469,-1.456968 -0.62568,-1.852083 -0.62568,-1.852083 -0.0733,-62.83854 -0.0733,-62.838539 0.42262,-2.102792 0.42262,-2.10279 0.66106,-1.570601 0.66106,-1.5706 1.04399,-1.65304 1.04398,-1.65304 2.06053,-1.94961 2.06053,-1.94961 1.50448,-0.890393 1.50448,-0.890393 2.31807,-0.829398 2.31808,-0.829399 27.11126,-0.07338 27.11127,-0.07338 9.9304,9.922926 9.9304,9.922926 41.67188,0.07833 41.671871,0.07833 1.984375,0.604163 1.984375,0.60416 1.885159,0.926381 1.885156,0.926377 1.754844,1.447477 1.754844,1.447478 1.203343,1.5139 1.203341,1.513901 1.15361,2.38125 1.153607,2.38125 0.419195,1.904315 0.419193,1.904312 v 6.193662 6.193661 l 2.402845,0.18139 2.402848,0.18139 2.161215,0.676394 2.161217,0.676394 1.455208,0.809967 1.455209,0.809966 1.750652,1.395815 1.750653,1.395814 1.255829,1.670624 1.255832,1.670624 0.900734,1.788621 0.900737,1.788623 0.522697,2.180254 0.522701,2.180256 0.0019,2.056212 0.0019,2.056212 -0.813239,4.558371 -0.813237,4.558371 -0.490188,2.778125 -0.490188,2.778125 -0.832729,4.6302083 -0.832728,4.6302082 -0.490189,2.7781249 -0.490188,2.7781249 -0.832728,4.6302081 -0.832729,4.6302086 -0.489989,2.778124 -0.48999,2.778125 -2.664574,14.870353 -2.664571,14.870353 -0.570931,1.533813 -0.570929,1.533814 -0.99242,1.639374 -0.992418,1.639371 -1.017288,1.223378 -1.017286,1.223375 -1.854195,1.42436 -1.854198,1.424361 -1.982261,0.908291 -1.982263,0.908288 -1.852084,0.481303 -1.852083,0.481307 -81.227077,0.0483 -81.22709,0.04831 z"
         id="path1289"
         inkscape:connector-curvature="0" />
      <path
         style="fill:#fcb43a;stroke-width:0.26458332"
         d="m -232.84551,63.135208 -1.5949,-0.208566 -2.21541,-0.7322 -2.21541,-0.732203 -1.92031,-1.25359 -1.92031,-1.253591 -1.08463,-0.979894 -1.08462,-0.979895 -1.21709,-1.619084 -1.21709,-1.619083 -0.73468,-1.456965 -0.73469,-1.456968 -0.62568,-1.852083 -0.62568,-1.852083 -0.0733,-62.83854 -0.0733,-62.838539 0.42262,-2.102792 0.42262,-2.10279 0.66106,-1.570601 0.66106,-1.5706 1.04399,-1.65304 1.04398,-1.65304 2.06053,-1.94961 2.06053,-1.94961 1.50448,-0.890393 1.50448,-0.890393 2.31807,-0.829398 2.31808,-0.829399 27.11126,-0.07338 27.11127,-0.07338 9.9304,9.922926 9.9304,9.922926 41.67188,0.07833 41.671871,0.07833 1.984375,0.604163 1.984375,0.60416 1.885159,0.926381 1.885156,0.926377 1.754844,1.447477 1.754844,1.447478 1.203343,1.5139 1.203341,1.513901 1.15361,2.38125 1.153607,2.38125 0.419195,1.904315 0.419193,1.904312 v 6.228659 6.228662 l -68.725523,0.06911 -68.72552,0.06911 -2.11667,0.747662 -2.11666,0.747663 -1.50217,0.800327 -1.50217,0.800328 -1.69146,1.3952 -1.69147,1.395201 -1.26683,1.685258 -1.26683,1.685261 -0.72824,1.456965 -0.72823,1.456968 -0.42822,1.322917 -0.42823,1.322916 -8.61683,47.339603 -8.61684,47.339606 -0.1355,0.219246 -0.13551,0.21925 -0.4474,-0.03355 -0.44741,-0.03355 z"
         id="path1287"
         inkscape:connector-curvature="0" />
      <path
         style="fill:#fdaa0a;stroke-width:0.26458332"
         d="m -234.95476,62.649594 -1.85209,-0.457748 -1.51895,-0.697663 -1.51895,-0.697664 -1.44864,-0.961552 -1.44864,-0.961551 -1.49786,-1.501582 -1.49787,-1.501582 -1.11891,-1.719791 -1.11891,-1.719792 -0.7333,-1.849432 -0.7333,-1.849432 -0.36687,-2.125924 -0.36687,-2.125922 0.0755,-62.302766 0.0755,-62.302769 0.48047,-1.577959 0.48048,-1.577959 0.76568,-1.688675 0.76568,-1.688675 1.18868,-1.665787 1.18869,-1.665786 1.57062,-1.417579 1.57063,-1.41758 1.47144,-0.887574 1.47145,-0.887575 1.60561,-0.648535 1.60561,-0.648536 1.99716,-0.382119 1.99715,-0.382119 h 25.8352 25.83521 l 10.06669,10.054167 10.0667,10.054166 h 41.42313 41.423128 l 2.092846,0.527621 2.092844,0.527619 2.116666,1.048054 2.116667,1.048055 1.631418,1.34698 1.631421,1.346981 1.363276,1.765927 1.363277,1.765924 0.888039,1.859857 0.888037,1.859856 0.455142,1.5875 0.455141,1.5875 0.116893,6.810055 0.116893,6.810052 -68.748518,0.06911 -68.74852,0.06911 -2.11667,0.747662 -2.11666,0.747663 -1.50217,0.800327 -1.50217,0.800328 -1.69146,1.3952 -1.69147,1.395201 -1.26683,1.685258 -1.26683,1.685261 -0.72824,1.456965 -0.72823,1.456968 -0.42822,1.322917 -0.42823,1.322916 -8.60443,47.271497 -8.60443,47.271493 v 0.155067 0.155065 l -1.52136,-0.01947 -1.52135,-0.01947 -1.85208,-0.457745 z"
         id="path1285"
         inkscape:connector-curvature="0" />
      <path
         style="fill:#fe9f00;stroke-width:0.26458332"
         d="m -234.91186,62.604329 -2.07377,-0.515466 -2.3373,-1.20717 -2.33731,-1.207172 -1.75019,-1.603734 -1.7502,-1.603735 -1.18596,-1.661975 -1.18596,-1.661972 -0.75534,-1.679136 -0.75534,-1.679133 -0.49639,-1.852083 -0.49639,-1.852084 v -62.706247 -62.706248 l 0.50352,-1.984375 0.50352,-1.984375 0.84354,-1.743362 0.84353,-1.743361 0.88612,-1.299347 0.88611,-1.299346 1.53261,-1.510328 1.53261,-1.510327 1.51987,-0.972244 1.51986,-0.972244 1.19664,-0.528005 1.19665,-0.528005 1.85208,-0.558069 1.85209,-0.558069 26.59062,-0.07463 26.59063,-0.07463 10.05286,10.059424 10.05286,10.059424 h 41.05459 41.054595 l 1.941505,0.379505 1.941504,0.379502 1.719792,0.705448 1.719792,0.705448 1.767051,1.171771 1.767055,1.171771 1.874789,2.007507 1.874793,2.00751 1.185243,2.416498 1.185246,2.416498 0.441082,1.5875 0.441082,1.5875 0.113286,6.544481 0.11329,6.544482 -68.352295,0.07262 -68.35229,0.07262 -1.71979,0.485026 -1.71979,0.485026 -2.38125,1.150551 -2.38125,1.150549 -1.60812,1.404615 -1.60812,1.404614 -1.25552,1.56726 -1.25552,1.567262 -0.80452,1.593757 -0.80453,1.59376 -0.38022,1.072314 -0.38023,1.072314 -7.80771,42.862498 -7.80771,42.862498 -0.85431,4.7625 -0.85432,4.7625 -1.31251,0.0529 -1.3125,0.0529 z"
         id="path1283"
         inkscape:connector-curvature="0" />
    </g>
  </g>
</svg>
