<?xml version="1.0" encoding="UTF-8" standalone="no"?>
<!-- Created with Inkscape (http://www.inkscape.org/) -->

<svg
   xmlns:dc="http://purl.org/dc/elements/1.1/"
   xmlns:cc="http://creativecommons.org/ns#"
   xmlns:rdf="http://www.w3.org/1999/02/22-rdf-syntax-ns#"
   xmlns:svg="http://www.w3.org/2000/svg"
   xmlns="http://www.w3.org/2000/svg"
   xmlns:sodipodi="http://sodipodi.sourceforge.net/DTD/sodipodi-0.dtd"
   xmlns:inkscape="http://www.inkscape.org/namespaces/inkscape"
   width="10.550513mm"
   height="10.306303mm"
   viewBox="0 0 10.550513 10.306303"
   version="1.1"
   id="svg8"
   inkscape:version="0.92.4 (f8dce91, 2019-08-02)"
   sodipodi:docname="todo.svg">
  <defs
     id="defs2" />
  <sodipodi:namedview
     id="base"
     pagecolor="#ffffff"
     bordercolor="#666666"
     borderopacity="1.0"
     inkscape:pageopacity="0.0"
     inkscape:pageshadow="2"
     inkscape:zoom="5.6"
     inkscape:cx="38.074525"
     inkscape:cy="14.29692"
     inkscape:document-units="mm"
     inkscape:current-layer="flowRoot889"
     showgrid="false"
     fit-margin-top="0"
     fit-margin-left="0"
     fit-margin-right="0"
     fit-margin-bottom="0"
     inkscape:pagecheckerboard="true"
     showborder="false"
     inkscape:window-width="1280"
     inkscape:window-height="926"
     inkscape:window-x="0"
     inkscape:window-y="27"
     inkscape:window-maximized="1" />
  <metadata
     id="metadata5">
    <rdf:RDF>
      <cc:Work
         rdf:about="">
        <dc:format>image/svg+xml</dc:format>
        <dc:type
           rdf:resource="http://purl.org/dc/dcmitype/StillImage" />
        <dc:title></dc:title>
      </cc:Work>
    </rdf:RDF>
  </metadata>
  <g
     inkscape:label="Layer 1"
     inkscape:groupmode="layer"
     id="layer1"
     transform="translate(0.04248969,-29.741141)">
    <g
       id="g953"
       transform="translate(11.85493,30.204934)">
      <g
         transform="matrix(0.51225958,0,0,0.34720127,-18.648188,-6.2690123)"
         style="font-style:normal;font-variant:normal;font-weight:normal;font-stretch:normal;font-size:13.33333397px;line-height:14.39813709px;font-family:sans-serif;-inkscape-font-specification:sans-serif;letter-spacing:0px;word-spacing:0px;fill:#fab900;fill-opacity:1;stroke:none"
         id="flowRoot889">
        <path
           id="path5203"
           style="font-style:normal;font-variant:normal;font-weight:bold;font-stretch:normal;font-size:20.66666794px;line-height:14.39813709px;font-family:'Mitra Mono';-inkscape-font-specification:'Mitra Mono Bold';text-align:center;text-anchor:middle;fill:#fab900;fill-opacity:1;stroke:none;stroke-width:0.28928381;stroke-miterlimit:4;stroke-dasharray:none;stroke-opacity:1"
           d="m 23.219103,40.10711 q 0,-3.108074 1.473308,-4.874024 1.483398,-1.765951 3.814453,-1.765951 1.533854,0 2.754883,0.827474 1.221029,0.827474 1.866862,2.310873 0.645833,1.473307 0.645833,3.35026 0,1.897136 -0.686197,3.400717 -0.676107,1.503581 -1.917318,2.280599 -1.241211,0.766927 -2.674154,0.766927 -1.554037,0 -2.785157,-0.847656 -1.231119,-0.857748 -1.866862,-2.331055 -0.625651,-1.473308 -0.625651,-3.118164 z m 1.473308,-0.01009 q 0,2.250326 1.069661,3.552084 1.079753,1.301758 2.694336,1.301758 1.644857,0 2.714519,-1.311849 1.069661,-1.32194 1.069661,-3.723633 0,-1.523763 -0.464193,-2.664063 -0.454101,-1.150391 -1.332031,-1.776042 -0.87793,-0.625651 -1.967773,-0.625651 -1.554037,0 -2.674154,1.210938 -1.110026,1.210937 -1.110026,4.036458 z M 13.59215,46.18198 V 33.679049 h 3.864909 q 1.311849,0 1.998047,0.181641 0.96875,0.242187 1.654948,0.888021 0.888021,0.837565 1.32194,2.139323 0.444011,1.301758 0.444011,2.976888 0,1.422852 -0.302735,2.522787 -0.302734,1.089843 -0.766927,1.816406 -0.464193,0.726563 -1.019206,1.1403 -0.555013,0.413737 -1.342122,0.625651 -0.777018,0.211914 -1.796224,0.211914 z m 0.908203,-1.473308 h 2.674154 q 1.241211,0 1.9375,-0.232096 0.70638,-0.232096 1.120117,-0.645833 0.585287,-0.595378 0.908203,-1.58431 0.333008,-0.999024 0.333008,-2.401693 0,-1.967774 -0.635742,-3.017253 -0.635742,-1.05957 -1.574219,-1.422852 -0.655924,-0.252278 -2.129232,-0.252278 h -2.633789 z m 8.71875,-21.348658 q 0,-3.108072 1.473308,-4.874023 1.483398,-1.765951 3.814453,-1.765951 1.533854,0 2.754883,0.827474 1.221029,0.827474 1.866862,2.310873 0.645833,1.473307 0.645833,3.35026 0,1.897136 -0.686197,3.400717 -0.676107,1.50358 -1.917318,2.280599 -1.241211,0.766927 -2.674154,0.766927 -1.554037,0 -2.785157,-0.847656 -1.231119,-0.857748 -1.866862,-2.331055 -0.625651,-1.473308 -0.625651,-3.118165 z m 1.473308,-0.01009 q 0,2.250326 1.069661,3.552084 1.079753,1.301758 2.694336,1.301758 1.644857,0 2.714519,-1.311849 1.069661,-1.32194 1.069661,-3.723633 0,-1.523763 -0.464193,-2.664063 -0.454101,-1.15039 -1.332031,-1.776042 -0.87793,-0.625651 -1.967773,-0.625651 -1.554037,0 -2.674154,1.210938 -1.110026,1.210938 -1.110026,4.036458 z M 17.28551,29.505523 V 18.4759 h -4.107097 v -1.473308 h 9.889323 V 18.4759 h -4.127278 v 11.029623 z"
           inkscape:connector-curvature="0" />
      </g>
    </g>
  </g>
</svg>
