<?xml version="1.0" encoding="UTF-8" standalone="no"?>
<svg
   xmlns:dc="http://purl.org/dc/elements/1.1/"
   xmlns:cc="http://creativecommons.org/ns#"
   xmlns:rdf="http://www.w3.org/1999/02/22-rdf-syntax-ns#"
   xmlns:svg="http://www.w3.org/2000/svg"
   xmlns="http://www.w3.org/2000/svg"
   xmlns:sodipodi="http://sodipodi.sourceforge.net/DTD/sodipodi-0.dtd"
   xmlns:inkscape="http://www.inkscape.org/namespaces/inkscape"
   inkscape:export-ydpi="101.6"
   inkscape:export-xdpi="101.6"
   inkscape:export-filename="/home/szpt-user045/ProjectManager/icon_512.png"
   width="128mm"
   height="128mm"
   viewBox="0 0 128 128"
   version="1.1"
   id="svg8"
   inkscape:version="1.0 (6e3e5246a0, 2020-05-07)"
   sodipodi:docname="icon.svg">
  <defs
     id="defs2" />
  <sodipodi:namedview
     id="base"
     pagecolor="#ffffff"
     bordercolor="#666666"
     borderopacity="1.0"
     inkscape:pageopacity="0.0"
     inkscape:pageshadow="2"
     inkscape:zoom="0.7"
     inkscape:cx="221.59206"
     inkscape:cy="156.0371"
     inkscape:document-units="mm"
     inkscape:current-layer="layer1"
     inkscape:document-rotation="0"
     showgrid="false"
     units="in"
     inkscape:window-width="1280"
     inkscape:window-height="926"
     inkscape:window-x="0"
     inkscape:window-y="27"
     inkscape:window-maximized="1" />
  <metadata
     id="metadata5">
    <rdf:RDF>
      <cc:Work
         rdf:about="">
        <dc:format>image/svg+xml</dc:format>
        <dc:type
           rdf:resource="http://purl.org/dc/dcmitype/StillImage" />
        <dc:title />
      </cc:Work>
    </rdf:RDF>
  </metadata>
  <g
     inkscape:label="Слой 1"
     inkscape:groupmode="layer"
     id="layer1">
    <path
       id="path128"
       style="fill:#ff4d00;fill-rule:evenodd;stroke-width:0.937497;fill-opacity:1"
       d="M 241.89062 15.117188 A 226.77166 226.77163 0 0 0 15.117188 241.89062 A 226.77166 226.77163 0 0 0 241.89062 468.66211 A 226.77166 226.77163 0 0 0 468.66211 241.89062 A 226.77166 226.77163 0 0 0 241.89062 15.117188 z M 241.89062 90.708984 A 151.1811 151.1811 0 0 1 393.07031 241.89062 A 151.1811 151.1811 0 0 1 241.89062 393.07031 A 151.1811 151.1811 0 0 1 90.708984 241.89062 A 151.1811 151.1811 0 0 1 241.89062 90.708984 z "
       transform="scale(0.26458333)" />
    <circle
       style="fill:#ff4d00;fill-opacity:1;stroke-width:0.328194"
       id="path966"
       cx="64"
       cy="64"
       r="20" />
  </g>
</svg>
